<svg width="118" height="38" viewBox="0 0 118 38" fill="none" xmlns="http://www.w3.org/2000/svg">
<path fill-rule="evenodd" clip-rule="evenodd" d="M114.5 29C116.433 29 118 27.433 118 25.5C118 23.567 116.433 22 114.5 22C112.567 22 111 23.567 111 25.5C111 27.433 112.567 29 114.5 29Z" fill="#812BB2"/>
<path d="M9.78845 23.5559C9.78845 23.121 9.57303 22.7196 9.13359 22.36C8.71137 21.9837 7.75493 21.4819 6.27288 20.8547C4.09288 19.9934 2.59359 19.1069 1.7664 18.187C0.956442 17.2672 0.551462 16.1298 0.551462 14.7584C0.551462 13.044 1.18909 11.6307 2.45573 10.5185C3.7396 9.39789 5.42845 8.82922 7.53952 8.82922C9.75398 8.82922 11.529 9.38116 12.8646 10.4934C14.2001 11.6056 14.8636 13.1025 14.8636 14.9758H9.57303C9.57303 13.3785 8.88371 12.5841 7.51367 12.5841C6.95359 12.5841 6.48829 12.7513 6.13501 13.0942C5.77312 13.4287 5.59217 13.9054 5.59217 14.5075C5.59217 14.9423 5.79035 15.327 6.18671 15.6699C6.58308 15.996 7.52228 16.4643 9.00434 17.0832C11.1585 17.8609 12.675 18.7223 13.5625 19.6756C14.4586 20.6206 14.9067 21.8415 14.9067 23.3552C14.9067 25.1113 14.226 26.5163 12.8732 27.5783C11.5118 28.6404 9.73675 29.1756 7.5309 29.1756C6.04885 29.1756 4.73913 28.8996 3.61035 28.3393C2.47296 27.7707 1.58545 26.9846 0.939208 25.981C0.318814 24.9775 0 23.8987 0 22.7363H5.02347C5.04932 23.6311 5.25612 24.3002 5.6611 24.7517C6.0747 25.195 6.73817 25.4207 7.66015 25.4207C9.08189 25.4207 9.78845 24.8019 9.78845 23.5559Z" fill="white"/>
<path d="M24.8504 29.1756C22.1362 29.1756 20.0165 28.3896 18.4999 26.8174C16.9834 25.2452 16.2166 22.9956 16.2166 20.0687V18.5132C16.2166 15.4191 16.9145 13.0273 18.3104 11.3548C19.7063 9.67391 21.7053 8.83765 24.3075 8.83765C26.8494 8.83765 28.7623 9.6321 30.0462 11.2126C31.3301 12.7848 31.9849 15.118 32.0108 18.2122V20.7294H21.4899C21.5675 22.1761 21.8949 23.2465 22.4808 23.9239C23.0667 24.5929 23.9715 24.919 25.1864 24.919C26.9528 24.919 28.4349 24.3337 29.6153 23.1629L31.6919 26.2654C31.0457 27.1352 30.1065 27.846 28.8743 28.3895C27.6335 28.908 26.298 29.1756 24.8504 29.1756ZM21.5244 17.1334H26.815V16.6651C26.7891 15.4943 26.5909 14.6079 26.2204 13.9974C25.8499 13.3953 25.195 13.0942 24.2817 13.0942C23.3597 13.0942 22.6876 13.412 22.2654 14.0559C21.8432 14.6915 21.6019 15.7201 21.5244 17.1334Z" fill="white"/>
<path d="M39.0158 28.8076H33.708V0.959961H39.0158V28.8076Z" fill="white"/>
<path d="M49.7349 29.1756C47.0207 29.1756 44.901 28.3896 43.3845 26.8174C41.8679 25.2452 41.1011 22.9956 41.1011 20.0687V18.5132C41.1011 15.4191 41.799 13.0273 43.1949 11.3548C44.5908 9.67391 46.5898 8.83765 49.1921 8.83765C51.7339 8.83765 53.6468 9.6321 54.9307 11.2126C56.2146 12.7848 56.8694 15.118 56.8953 18.2122V20.7294H46.3744C46.452 22.1761 46.7794 23.2465 47.3653 23.9239C47.9513 24.5929 48.856 24.919 50.0709 24.919C51.8373 24.919 53.3194 24.3337 54.4999 23.1629L56.5765 26.2654C55.9302 27.1352 54.991 27.846 53.7588 28.3895C52.5267 28.908 51.1825 29.1756 49.7349 29.1756ZM46.4175 17.1334H51.6995V16.6651C51.6736 15.4943 51.4755 14.6079 51.1049 13.9974C50.7344 13.3953 50.0796 13.0942 49.1576 13.0942C48.2356 13.0942 47.5635 13.412 47.1413 14.0559C46.7277 14.6915 46.4864 15.7201 46.4175 17.1334Z" fill="white"/>
<path d="M66.5201 24.9106C68.0539 24.9106 68.8294 23.9406 68.8552 22.0088H73.827C73.8011 24.1496 73.1204 25.8807 71.7935 27.1936C70.4579 28.5149 68.7432 29.1672 66.6407 29.1672C64.0385 29.1672 62.0481 28.3811 60.6781 26.8089C59.308 25.2368 58.6101 22.9203 58.5842 19.8679V18.3125C58.5842 15.2267 59.2563 12.8768 60.6005 11.2628C61.9619 9.6404 63.961 8.82922 66.5977 8.82922C68.8294 8.82922 70.5871 9.49824 71.8624 10.8446C73.1463 12.1743 73.8011 14.0643 73.827 16.5229H68.8552C68.8466 15.419 68.657 14.5744 68.2951 13.9806C67.9332 13.3869 67.3387 13.0942 66.5029 13.0942C65.5809 13.0942 64.9174 13.412 64.5211 14.0559C64.1247 14.6831 63.9093 15.9124 63.8834 17.7355V19.7341C63.8834 21.3314 63.961 22.452 64.1247 23.0876C64.2884 23.7148 64.5555 24.1831 64.926 24.4841C65.3052 24.7685 65.8394 24.9106 66.5201 24.9106Z" fill="white"/>
<path d="M82.2885 4.37183V9.19708H84.9941V13.0606H82.2885V22.7948C82.2885 23.5725 82.3919 24.0993 82.6073 24.392C82.8314 24.6847 83.2536 24.8269 83.874 24.8269C84.3824 24.8269 84.8046 24.7851 85.1234 24.7015L85.0889 28.6904C84.1928 29.0166 83.2191 29.1838 82.1765 29.1838C78.7643 29.1838 77.041 27.2855 76.9979 23.4889V13.0523H74.6628V9.18872H76.9979V4.37183H82.2885Z" fill="white"/>
<path d="M85.3042 18.0281C85.3042 15.051 86.028 12.7178 87.4756 11.0286C88.9232 9.33932 90.9222 8.48633 93.4727 8.48633C96.0491 8.48633 98.0654 9.33096 99.5043 11.0286C100.952 12.7178 101.676 15.0677 101.676 18.0616V19.316C101.676 22.3014 100.961 24.6346 99.5302 26.3155C98.0998 27.9964 96.0922 28.8327 93.5158 28.8327C90.9222 28.8327 88.9059 27.9964 87.4583 26.3155C86.028 24.6263 85.3128 22.2764 85.3128 19.2825V18.0281H85.3042ZM90.612 19.3076C90.612 22.8116 91.5771 24.5677 93.5072 24.5677C95.2908 24.5677 96.2473 23.1043 96.3851 20.1773L96.4024 18.0198C96.4024 16.2302 96.1439 14.9089 95.6355 14.0475C95.1271 13.1778 94.4033 12.7429 93.4641 12.7429C92.568 12.7429 91.8614 13.1778 91.353 14.0475C90.8533 14.9089 90.6034 16.2302 90.6034 18.0198V19.3076H90.612Z" fill="white"/>
<path d="M112.464 14.1395L110.706 13.9973C109.258 13.9973 108.285 14.6162 107.776 15.8455V28.8076H102.469V9.18882H107.458L107.604 11.3129C108.44 9.65713 109.594 8.82922 111.059 8.82922C111.654 8.82922 112.145 8.90449 112.515 9.06338L112.464 14.1395Z" fill="white"/>
<path d="M15.4877 36.4735C15.4877 36.3393 15.453 36.2384 15.3837 36.1705C15.3159 36.1012 15.1915 36.0296 15.0107 35.9557C14.6806 35.8306 14.4431 35.6844 14.2984 35.5171C14.1537 35.3483 14.0814 35.1493 14.0814 34.9202C14.0814 34.6429 14.1794 34.4205 14.3753 34.2532C14.5728 34.0844 14.823 34 15.126 34C15.3279 34 15.5081 34.043 15.6663 34.1289C15.8246 34.2133 15.9459 34.3331 16.0303 34.4884C16.1163 34.6436 16.1592 34.82 16.1592 35.0174H15.4968C15.4968 34.8637 15.4636 34.7469 15.3973 34.667C15.3325 34.5856 15.2383 34.5449 15.1147 34.5449C14.9986 34.5449 14.9082 34.5796 14.8433 34.6489C14.7785 34.7167 14.7461 34.8087 14.7461 34.9247C14.7461 35.0152 14.7823 35.0973 14.8546 35.1712C14.927 35.2435 15.0551 35.3189 15.239 35.3973C15.5601 35.5133 15.7929 35.6558 15.9377 35.8246C16.0839 35.9934 16.157 36.2082 16.157 36.469C16.157 36.7554 16.0658 36.9792 15.8834 37.1405C15.701 37.3018 15.453 37.3824 15.1395 37.3824C14.927 37.3824 14.7333 37.3387 14.5585 37.2513C14.3836 37.1638 14.2464 37.0387 14.147 36.876C14.049 36.7132 14 36.521 14 36.2994H14.667C14.667 36.4893 14.7039 36.6272 14.7778 36.7132C14.8516 36.7991 14.9722 36.842 15.1395 36.842C15.3717 36.842 15.4877 36.7192 15.4877 36.4735Z" fill="#812BB2"/>
<path d="M20.2429 35.9128H19.2074V36.7855H20.4328V37.3372H18.5426V34.0452H20.4283V34.5992H19.2074V35.3769H20.2429V35.9128Z" fill="#812BB2"/>
<path d="M23.4267 36.7855H24.5934V37.3372H22.762V34.0452H23.4267V36.7855Z" fill="#812BB2"/>
<path d="M28.6228 35.9128H27.5872V36.7855H28.8127V37.3372H26.9225V34.0452H28.8082V34.5992H27.5872V35.3769H28.6228V35.9128Z" fill="#812BB2"/>
<path d="M33.3734 36.2406C33.3568 36.6159 33.2513 36.9001 33.0569 37.093C32.8624 37.2859 32.5881 37.3824 32.2339 37.3824C31.8616 37.3824 31.576 37.2603 31.377 37.0161C31.1795 36.7704 31.0808 36.4207 31.0808 35.967V35.4131C31.0808 34.9609 31.1833 34.6127 31.3883 34.3685C31.5933 34.1228 31.8782 34 32.2429 34C32.6017 34 32.8738 34.1002 33.0592 34.3007C33.2461 34.5012 33.3523 34.7891 33.378 35.1644H32.711C32.7049 34.9323 32.6688 34.7725 32.6024 34.6851C32.5376 34.5961 32.4178 34.5517 32.2429 34.5517C32.0651 34.5517 31.9392 34.6142 31.8654 34.7393C31.7915 34.8629 31.7523 35.0672 31.7478 35.3521V35.9738C31.7478 36.3009 31.784 36.5255 31.8563 36.6476C31.9302 36.7697 32.056 36.8307 32.2339 36.8307C32.4087 36.8307 32.5293 36.7885 32.5957 36.7041C32.662 36.6182 32.6997 36.4637 32.7087 36.2406H33.3734Z" fill="#812BB2"/>
<path d="M37.7917 34.5992H36.9778V37.3372H36.3108V34.5992H35.5104V34.0452H37.7917V34.5992Z" fill="#812BB2"/>
<path d="M44.1141 36.1931H43.0085V35.6596H44.1141V36.1931Z" fill="#812BB2"/>
<path d="M50.2986 36.7855H51.4652V37.3372H49.6339V34.0452H50.2986V36.7855Z" fill="#812BB2"/>
<path d="M55.9672 35.9874C55.9672 36.429 55.8624 36.7719 55.6529 37.0161C55.4449 37.2603 55.1555 37.3824 54.7847 37.3824C54.4154 37.3824 54.1253 37.2618 53.9142 37.0207C53.7032 36.778 53.5962 36.4388 53.5932 36.0032V35.4402C53.5932 34.988 53.6979 34.6353 53.9075 34.3821C54.117 34.1274 54.4079 34 54.7802 34C55.1465 34 55.4351 34.1251 55.6461 34.3753C55.8572 34.624 55.9642 34.9737 55.9672 35.4244V35.9874ZM55.3002 35.4357C55.3002 35.1388 55.258 34.918 55.1736 34.7733C55.0892 34.6285 54.9581 34.5562 54.7802 34.5562C54.6038 34.5562 54.4735 34.6263 54.389 34.7665C54.3046 34.9051 54.2609 35.1169 54.2579 35.4018V35.9874C54.2579 36.2753 54.3009 36.4878 54.3868 36.625C54.4727 36.7606 54.6053 36.8285 54.7847 36.8285C54.9581 36.8285 55.0869 36.7622 55.1713 36.6295C55.2557 36.4954 55.2987 36.2881 55.3002 36.0077V35.4357Z" fill="#812BB2"/>
<path d="M59.411 36.4328L59.965 34.0452H60.7066L59.7569 37.3372H59.0651L58.1223 34.0452H58.8593L59.411 36.4328Z" fill="#812BB2"/>
<path d="M64.6613 35.9128H63.6258V36.7855H64.8513V37.3372H62.9611V34.0452H64.8467V34.5992H63.6258V35.3769H64.6613V35.9128Z" fill="#812BB2"/>
<path d="M71.3116 36.1931H70.206V35.6596H71.3116V36.1931Z" fill="#812BB2"/>
<path d="M78.2218 36.4735C78.2218 36.3393 78.1872 36.2384 78.1178 36.1705C78.05 36.1012 77.9256 36.0296 77.7448 35.9557C77.4147 35.8306 77.1773 35.6844 77.0326 35.5171C76.8879 35.3483 76.8155 35.1493 76.8155 34.9202C76.8155 34.6429 76.9135 34.4205 77.1094 34.2532C77.3069 34.0844 77.5571 34 77.8601 34C78.062 34 78.2422 34.043 78.4004 34.1289C78.5587 34.2133 78.68 34.3331 78.7645 34.4884C78.8504 34.6436 78.8933 34.82 78.8933 35.0174H78.2309C78.2309 34.8637 78.1977 34.7469 78.1314 34.667C78.0666 34.5856 77.9724 34.5449 77.8488 34.5449C77.7327 34.5449 77.6423 34.5796 77.5774 34.6489C77.5126 34.7167 77.4802 34.8087 77.4802 34.9247C77.4802 35.0152 77.5164 35.0973 77.5888 35.1712C77.6611 35.2435 77.7892 35.3189 77.9731 35.3973C78.2942 35.5133 78.5271 35.6558 78.6718 35.8246C78.818 35.9934 78.8911 36.2082 78.8911 36.469C78.8911 36.7554 78.7999 36.9792 78.6175 37.1405C78.4351 37.3018 78.1872 37.3824 77.8736 37.3824C77.6611 37.3824 77.4674 37.3387 77.2926 37.2513C77.1177 37.1638 76.9806 37.0387 76.8811 36.876C76.7831 36.7132 76.7341 36.521 76.7341 36.2994H77.4011C77.4011 36.4893 77.438 36.6272 77.5119 36.7132C77.5857 36.7991 77.7063 36.842 77.8736 36.842C78.1058 36.842 78.2218 36.7192 78.2218 36.4735Z" fill="#812BB2"/>
<path d="M83.5852 37.3372H82.9227V35.9286H81.9415V37.3372H81.2768V34.0452H81.9415V35.3769H82.9227V34.0452H83.5852V37.3372Z" fill="#812BB2"/>
<path d="M87.6779 36.6634H86.7713L86.5949 37.3372H85.8918L86.9205 34.0452H87.5287L88.5642 37.3372H87.8543L87.6779 36.6634ZM86.916 36.1095H87.531L87.2235 34.936L86.916 36.1095Z" fill="#812BB2"/>
<path d="M91.8159 36.1344H91.4858V37.3372H90.821V34.0452H91.8814C92.2145 34.0452 92.4715 34.1319 92.6524 34.3052C92.8348 34.4771 92.926 34.722 92.926 35.04C92.926 35.4772 92.767 35.7832 92.4489 35.958L93.0255 37.3055V37.3372H92.311L91.8159 36.1344ZM91.4858 35.5804H91.8633C91.996 35.5804 92.0955 35.5367 92.1618 35.4493C92.2281 35.3603 92.2613 35.242 92.2613 35.0943C92.2613 34.7642 92.1324 34.5992 91.8746 34.5992H91.4858V35.5804Z" fill="#812BB2"/>
<path d="M97.0278 35.9128H95.9922V36.7855H97.2177V37.3372H95.3275V34.0452H97.2132V34.5992H95.9922V35.3769H97.0278V35.9128Z" fill="#812BB2"/>
</svg>
