<svg width="303" height="137" viewBox="0 0 303 137" fill="none" xmlns="http://www.w3.org/2000/svg">
<rect width="303" height="137" fill="#F2F2F2"/>
<path fill-rule="evenodd" clip-rule="evenodd" d="M207.5 78.04C209.433 78.04 211 76.473 211 74.54C211 72.607 209.433 71.04 207.5 71.04C205.567 71.04 204 72.607 204 74.54C204 76.473 205.567 78.04 207.5 78.04Z" fill="#812BB2"/>
<path d="M102.788 72.5959C102.788 72.1611 102.573 71.7596 102.134 71.4001C101.711 71.0237 100.755 70.522 99.2729 69.8948C97.0929 69.0334 95.5936 68.147 94.7664 67.2271C93.9564 66.3072 93.5515 65.1699 93.5515 63.7984C93.5515 62.084 94.1891 60.6708 95.4557 59.5585C96.7396 58.4379 98.4285 57.8693 100.54 57.8693C102.754 57.8693 104.529 58.4212 105.865 59.5334C107.2 60.6457 107.864 62.1426 107.864 64.0158H102.573C102.573 62.4186 101.884 61.6241 100.514 61.6241C99.9536 61.6241 99.4883 61.7914 99.135 62.1342C98.7731 62.4687 98.5922 62.9454 98.5922 63.5475C98.5922 63.9824 98.7903 64.3671 99.1867 64.7099C99.5831 65.0361 100.522 65.5044 102.004 66.1232C104.158 66.9009 105.675 67.7623 106.563 68.7156C107.459 69.6606 107.907 70.8816 107.907 72.3952C107.907 74.1514 107.226 75.5563 105.873 76.6184C104.512 77.6804 102.737 78.2156 100.531 78.2156C99.0488 78.2156 97.7391 77.9397 96.6104 77.3794C95.473 76.8107 94.5855 76.0246 93.9392 75.0211C93.3188 74.0176 93 72.9388 93 71.7764H98.0235C98.0493 72.6712 98.2561 73.3402 98.6611 73.7918C99.0747 74.235 99.7382 74.4608 100.66 74.4608C102.082 74.4608 102.788 73.842 102.788 72.5959Z" fill="#2D283E"/>
<path d="M117.85 78.2157C115.136 78.2157 113.016 77.4296 111.5 75.8574C109.983 74.2852 109.217 72.0357 109.217 69.1087V67.5533C109.217 64.4591 109.914 62.0674 111.31 60.3948C112.706 58.714 114.705 57.8777 117.308 57.8777C119.849 57.8777 121.762 58.6721 123.046 60.2527C124.33 61.8249 124.985 64.158 125.011 67.2522V69.7694H114.49C114.567 71.2161 114.895 72.2866 115.481 72.9639C116.067 73.6329 116.971 73.9591 118.186 73.9591C119.953 73.9591 121.435 73.3737 122.615 72.2029L124.692 75.3055C124.046 76.1752 123.106 76.886 121.874 77.4296C120.634 77.9481 119.298 78.2157 117.85 78.2157ZM114.524 66.1734H119.815V65.7051C119.789 64.5344 119.591 63.6479 119.22 63.0374C118.85 62.4353 118.195 62.1343 117.282 62.1343C116.36 62.1343 115.688 62.4521 115.265 63.096C114.843 63.7315 114.602 64.7602 114.524 66.1734Z" fill="#2D283E"/>
<path d="M132.016 77.8477H126.708V50H132.016V77.8477Z" fill="#2D283E"/>
<path d="M142.735 78.2157C140.021 78.2157 137.901 77.4296 136.384 75.8574C134.868 74.2852 134.101 72.0357 134.101 69.1087V67.5533C134.101 64.4591 134.799 62.0674 136.195 60.3948C137.591 58.714 139.59 57.8777 142.192 57.8777C144.734 57.8777 146.647 58.6721 147.931 60.2527C149.215 61.8249 149.869 64.158 149.895 67.2522V69.7694H139.374C139.452 71.2161 139.779 72.2866 140.365 72.9639C140.951 73.6329 141.856 73.9591 143.071 73.9591C144.837 73.9591 146.319 73.3737 147.5 72.2029L149.576 75.3055C148.93 76.1752 147.991 76.886 146.759 77.4296C145.527 77.9481 144.182 78.2157 142.735 78.2157ZM139.418 66.1734H144.699V65.7051C144.674 64.5344 144.475 63.6479 144.105 63.0374C143.734 62.4353 143.08 62.1343 142.158 62.1343C141.236 62.1343 140.564 62.4521 140.141 63.096C139.728 63.7315 139.486 64.7602 139.418 66.1734Z" fill="#2D283E"/>
<path d="M159.52 73.9507C161.054 73.9507 161.829 72.9806 161.855 71.0488H166.827C166.801 73.1897 166.12 74.9207 164.793 76.2337C163.458 77.555 161.743 78.2073 159.641 78.2073C157.039 78.2073 155.048 77.4212 153.678 75.849C152.308 74.2768 151.61 71.9604 151.584 68.908V67.3525C151.584 64.2667 152.256 61.9168 153.601 60.3028C154.962 58.6804 156.961 57.8693 159.598 57.8693C161.829 57.8693 163.587 58.5383 164.862 59.8847C166.146 61.2143 166.801 63.1043 166.827 65.5629H161.855C161.847 64.459 161.657 63.6144 161.295 63.0207C160.933 62.4269 160.339 62.1342 159.503 62.1342C158.581 62.1342 157.917 62.452 157.521 63.0959C157.125 63.7231 156.909 64.9524 156.883 66.7755V68.7742C156.883 70.3714 156.961 71.492 157.125 72.1276C157.288 72.7548 157.556 73.2231 157.926 73.5242C158.305 73.8085 158.839 73.9507 159.52 73.9507Z" fill="#2D283E"/>
<path d="M175.289 53.4119V58.2371H177.994V62.1007H175.289V71.8348C175.289 72.6125 175.392 73.1394 175.607 73.4321C175.831 73.7248 176.254 73.8669 176.874 73.8669C177.382 73.8669 177.805 73.8251 178.123 73.7415L178.089 77.7305C177.193 78.0566 176.219 78.2239 175.177 78.2239C171.764 78.2239 170.041 76.3256 169.998 72.5289V62.0923H167.663V58.2288H169.998V53.4119H175.289Z" fill="#2D283E"/>
<path d="M178.304 67.0682C178.304 64.0911 179.028 61.7579 180.476 60.0686C181.923 58.3794 183.922 57.5264 186.473 57.5264C189.049 57.5264 191.065 58.371 192.504 60.0686C193.952 61.7579 194.676 64.1078 194.676 67.1016V68.356C194.676 71.3415 193.961 73.6747 192.53 75.3556C191.1 77.0365 189.092 77.8727 186.516 77.8727C183.922 77.8727 181.906 77.0365 180.458 75.3556C179.028 73.6663 178.313 71.3164 178.313 68.3226V67.0682H178.304ZM183.612 68.3477C183.612 71.8516 184.577 73.6078 186.507 73.6078C188.291 73.6078 189.247 72.1443 189.385 69.2174L189.402 67.0598C189.402 65.2702 189.144 63.9489 188.635 63.0875C188.127 62.2178 187.403 61.783 186.464 61.783C185.568 61.783 184.861 62.2178 184.353 63.0875C183.853 63.9489 183.603 65.2702 183.603 67.0598V68.3477H183.612Z" fill="#2D283E"/>
<path d="M205.464 63.1796L203.706 63.0374C202.258 63.0374 201.285 63.6562 200.776 64.8855V77.8477H195.469V58.2289H200.458L200.604 60.353C201.44 58.6972 202.594 57.8693 204.059 57.8693C204.654 57.8693 205.145 57.9445 205.515 58.1034L205.464 63.1796Z" fill="#2D283E"/>
<path d="M108.488 85.5135C108.488 85.3794 108.453 85.2784 108.384 85.2106C108.316 85.1412 108.192 85.0696 108.011 84.9958C107.681 84.8707 107.443 84.7245 107.298 84.5571C107.154 84.3883 107.081 84.1894 107.081 83.9603C107.081 83.6829 107.179 83.4606 107.375 83.2933C107.573 83.1244 107.823 83.04 108.126 83.04C108.328 83.04 108.508 83.083 108.666 83.1689C108.825 83.2533 108.946 83.3732 109.03 83.5284C109.116 83.6837 109.159 83.86 109.159 84.0575H108.497C108.497 83.9037 108.464 83.7869 108.397 83.707C108.332 83.6256 108.238 83.5849 108.115 83.5849C107.999 83.5849 107.908 83.6196 107.843 83.6889C107.779 83.7568 107.746 83.8487 107.746 83.9648C107.746 84.0552 107.782 84.1374 107.855 84.2112C107.927 84.2836 108.055 84.3589 108.239 84.4373C108.56 84.5534 108.793 84.6958 108.938 84.8646C109.084 85.0335 109.157 85.2483 109.157 85.509C109.157 85.7954 109.066 86.0192 108.883 86.1805C108.701 86.3418 108.453 86.4224 108.14 86.4224C107.927 86.4224 107.733 86.3787 107.558 86.2913C107.384 86.2039 107.246 86.0788 107.147 85.916C107.049 85.7532 107 85.561 107 85.3394H107.667C107.667 85.5294 107.704 85.6673 107.778 85.7532C107.852 85.8391 107.972 85.8821 108.14 85.8821C108.372 85.8821 108.488 85.7592 108.488 85.5135Z" fill="#812BB2"/>
<path d="M113.243 84.9528H112.207V85.8256H113.433V86.3772H111.543V83.0853H113.428V83.6392H112.207V84.417H113.243V84.9528Z" fill="#812BB2"/>
<path d="M116.427 85.8256H117.593V86.3772H115.762V83.0853H116.427V85.8256Z" fill="#812BB2"/>
<path d="M121.623 84.9528H120.587V85.8256H121.813V86.3772H119.923V83.0853H121.808V83.6392H120.587V84.417H121.623V84.9528Z" fill="#812BB2"/>
<path d="M126.373 85.2807C126.357 85.656 126.251 85.9401 126.057 86.133C125.862 86.326 125.588 86.4224 125.234 86.4224C124.862 86.4224 124.576 86.3004 124.377 86.0562C124.18 85.8105 124.081 85.4608 124.081 85.0071V84.4531C124.081 84.001 124.183 83.6528 124.388 83.4086C124.593 83.1629 124.878 83.04 125.243 83.04C125.602 83.04 125.874 83.1403 126.059 83.3407C126.246 83.5412 126.352 83.8291 126.378 84.2044H125.711C125.705 83.9723 125.669 83.8125 125.602 83.7251C125.538 83.6362 125.418 83.5917 125.243 83.5917C125.065 83.5917 124.939 83.6543 124.865 83.7794C124.792 83.903 124.752 84.1072 124.748 84.3921V85.0139C124.748 85.341 124.784 85.5655 124.856 85.6876C124.93 85.8097 125.056 85.8708 125.234 85.8708C125.409 85.8708 125.529 85.8286 125.596 85.7442C125.662 85.6582 125.7 85.5037 125.709 85.2807H126.373Z" fill="#812BB2"/>
<path d="M130.792 83.6392H129.978V86.3772H129.311V83.6392H128.51V83.0853H130.792V83.6392Z" fill="#812BB2"/>
<path d="M137.114 85.2332H136.009V84.6996H137.114V85.2332Z" fill="#812BB2"/>
<path d="M143.299 85.8256H144.465V86.3772H142.634V83.0853H143.299V85.8256Z" fill="#812BB2"/>
<path d="M148.967 85.0274C148.967 85.4691 148.862 85.812 148.653 86.0562C148.445 86.3004 148.156 86.4224 147.785 86.4224C147.415 86.4224 147.125 86.3019 146.914 86.0607C146.703 85.818 146.596 85.4789 146.593 85.0433V84.4803C146.593 84.0281 146.698 83.6754 146.907 83.4221C147.117 83.1674 147.408 83.04 147.78 83.04C148.146 83.04 148.435 83.1651 148.646 83.4154C148.857 83.6641 148.964 84.0138 148.967 84.4644V85.0274ZM148.3 84.4758C148.3 84.1788 148.258 83.958 148.174 83.8133C148.089 83.6686 147.958 83.5962 147.78 83.5962C147.604 83.5962 147.473 83.6663 147.389 83.8065C147.305 83.9452 147.261 84.157 147.258 84.4418V85.0274C147.258 85.3153 147.301 85.5279 147.387 85.665C147.473 85.8007 147.605 85.8685 147.785 85.8685C147.958 85.8685 148.087 85.8022 148.171 85.6695C148.256 85.5354 148.299 85.3281 148.3 85.0478V84.4758Z" fill="#812BB2"/>
<path d="M152.411 85.4728L152.965 83.0853H153.707L152.757 86.3772H152.065L151.122 83.0853H151.859L152.411 85.4728Z" fill="#812BB2"/>
<path d="M157.661 84.9528H156.626V85.8256H157.851V86.3772H155.961V83.0853H157.847V83.6392H156.626V84.417H157.661V84.9528Z" fill="#812BB2"/>
<path d="M164.312 85.2332H163.206V84.6996H164.312V85.2332Z" fill="#812BB2"/>
<path d="M171.222 85.5135C171.222 85.3794 171.187 85.2784 171.118 85.2106C171.05 85.1412 170.926 85.0696 170.745 84.9958C170.415 84.8707 170.177 84.7245 170.033 84.5571C169.888 84.3883 169.816 84.1894 169.816 83.9603C169.816 83.6829 169.913 83.4606 170.109 83.2933C170.307 83.1244 170.557 83.04 170.86 83.04C171.062 83.04 171.242 83.083 171.4 83.1689C171.559 83.2533 171.68 83.3732 171.764 83.5284C171.85 83.6837 171.893 83.86 171.893 84.0575H171.231C171.231 83.9037 171.198 83.7869 171.131 83.707C171.067 83.6256 170.972 83.5849 170.849 83.5849C170.733 83.5849 170.642 83.6196 170.577 83.6889C170.513 83.7568 170.48 83.8487 170.48 83.9648C170.48 84.0552 170.516 84.1374 170.589 84.2112C170.661 84.2836 170.789 84.3589 170.973 84.4373C171.294 84.5534 171.527 84.6958 171.672 84.8646C171.818 85.0335 171.891 85.2483 171.891 85.509C171.891 85.7954 171.8 86.0192 171.617 86.1805C171.435 86.3418 171.187 86.4224 170.874 86.4224C170.661 86.4224 170.467 86.3787 170.293 86.2913C170.118 86.2039 169.981 86.0788 169.881 85.916C169.783 85.7532 169.734 85.561 169.734 85.3394H170.401C170.401 85.5294 170.438 85.6673 170.512 85.7532C170.586 85.8391 170.706 85.8821 170.874 85.8821C171.106 85.8821 171.222 85.7592 171.222 85.5135Z" fill="#812BB2"/>
<path d="M176.585 86.3772H175.923V84.9686H174.941V86.3772H174.277V83.0853H174.941V84.417H175.923V83.0853H176.585V86.3772Z" fill="#812BB2"/>
<path d="M180.678 85.7035H179.771L179.595 86.3772H178.892L179.92 83.0853H180.529L181.564 86.3772H180.854L180.678 85.7035ZM179.916 85.1495H180.531L180.223 83.9761L179.916 85.1495Z" fill="#812BB2"/>
<path d="M184.816 85.1744H184.486V86.3772H183.821V83.0853H184.881C185.215 83.0853 185.472 83.1719 185.652 83.3453C185.835 83.5171 185.926 83.762 185.926 84.0801C185.926 84.5172 185.767 84.8232 185.449 84.998L186.025 86.3456V86.3772H185.311L184.816 85.1744ZM184.486 84.6205H184.863C184.996 84.6205 185.095 84.5767 185.162 84.4893C185.228 84.4004 185.261 84.2821 185.261 84.1343C185.261 83.8042 185.132 83.6392 184.875 83.6392H184.486V84.6205Z" fill="#812BB2"/>
<path d="M190.028 84.9528H188.992V85.8256H190.218V86.3772H188.328V83.0853H190.213V83.6392H188.992V84.417H190.028V84.9528Z" fill="#812BB2"/>
</svg>
